<mxfile host="app.diagrams.net" modified="2022-11-18T22:16:11.374Z" agent="5.0 (Macintosh)" etag="Lens2eaTB9XPaXM0PHeN" version="20.5.3" type="github">
  <diagram id="fHqRQTKvjRQOcd6iJBSY" name="Page-1">
    <mxGraphModel dx="912" dy="474" grid="1" gridSize="10" guides="1" tooltips="1" connect="1" arrows="1" fold="1" page="1" pageScale="1" pageWidth="850" pageHeight="1100" math="0" shadow="0">
      <root>
        <mxCell id="0" />
        <mxCell id="1" parent="0" />
        <mxCell id="T5vbhO2mCXwJh2hEvMsF-1" value="" style="rounded=1;whiteSpace=wrap;html=1;fillColor=#dae8fc;strokeColor=#6c8ebf;" vertex="1" parent="1">
          <mxGeometry x="310" y="80" width="100" height="40" as="geometry" />
        </mxCell>
        <mxCell id="T5vbhO2mCXwJh2hEvMsF-2" value="Start" style="text;html=1;strokeColor=none;fillColor=none;align=center;verticalAlign=middle;whiteSpace=wrap;rounded=0;" vertex="1" parent="1">
          <mxGeometry x="330" y="85" width="60" height="30" as="geometry" />
        </mxCell>
      </root>
    </mxGraphModel>
  </diagram>
</mxfile>
